# xmcd
#
# Track frame offsets:
#	150
#	12255
#	26932
#	44592
#	64481
#	74470
#	96184
#	108833
#	128432
#	149754
#
# Disc length: 2245 seconds
#
# Revision: 0
# Processed by: cddbd v1.4PL0 Copyright (c) Steve Scherf et al.
# Submitted via: dBpowerAMP V4.0
#
DISCID=9508c30a
DTITLE=Albrto Cortez - El Compositor... el cantante
DYEAR=1996
DGENRE=Ballad
TTITLE0=Hay un Madrid
TTITLE1=Cuando un amigo se va
TTITLE2=Carta de un artista
TTITLE3=El abuelo
TTITLE4=Chaval
TTITLE5=Hay un niño en cada hombre
TTITLE6=Mientras llueve
TTITLE7=El farol de una calle cualquiera
TTITLE8=Cuando regrese a la casa familiar
TTITLE9=Manolo
EXTD=
EXTT0=
EXTT1=
EXTT2=
EXTT3=
EXTT4=
EXTT5=
EXTT6=
EXTT7=
EXTT8=
EXTT9=
PLAYORDER=
